# xmcd
#
# Track frame offsets:
#	183
#	13670
#	29440
#	46700
#	59403
#	72073
#	81105
#	93323
#	103263
#	115260
#	128588
#	143245
#	163205
#	172235
#	182765
#	198665
#	210025
#	222318
#	241735
#	256478
#
# Disc length: 3544 seconds
#
# Revision: 3
# Processed by: cddbd v1.5.2PL0 Copyright (c) Steve Scherf et al.
# Submitted via: audiograbber 1.83.01
#
DISCID=1c0dd614
DTITLE=Trini Lopez - If I had a hammer
DYEAR=1993
DGENRE=Country
TTITLE0=If I had a hammer
TTITLE1=America
TTITLE2=This land is your land
TTITLE3=Lemon tree
TTITLE4=Michael (row the boat ashore)
TTITLE5=Amor
TTITLE6=Blowing in the wind
TTITLE7=(The gang that sang) Heart of my heart
TTITLE8=Porfidia
TTITLE9=Angolito
TTITLE10=Guantanamera
TTITLE11=Corazon
TTITLE12=Adolita
TTITLE13=Shame and scandal
TTITLE14=Granada
TTITLE15=Quando caliente el sol
TTITLE16=Besame mucho
TTITLE17=La bamba
TTITLE18=Kansas City
TTITLE19=Cielito lindo
EXTD=
EXTT0=
EXTT1=
EXTT2=
EXTT3=
EXTT4=
EXTT5=
EXTT6=
EXTT7=
EXTT8=
EXTT9=
EXTT10=
EXTT11=
EXTT12=
EXTT13=
EXTT14=
EXTT15=
EXTT16=
EXTT17=
EXTT18=
EXTT19=
PLAYORDER=
